<?xml version="1.0" encoding="UTF-8"?>
<!DOCTYPE svg PUBLIC "-//W3C//DTD SVG 1.1//EN" "http://www.w3.org/Graphics/SVG/1.1/DTD/svg11.dtd">
<!-- Creator: CorelDRAW -->
<svg xmlns="http://www.w3.org/2000/svg" xml:space="preserve" width="56.3624mm" height="68.7084mm" version="1.1" style="shape-rendering:geometricPrecision; text-rendering:geometricPrecision; image-rendering:optimizeQuality; fill-rule:evenodd; clip-rule:evenodd"
viewBox="0 0 7425.16 9051.61"
 xmlns:xlink="http://www.w3.org/1999/xlink"
 xmlns:xodm="http://www.corel.com/coreldraw/odm/2003">
 <defs>
  <style type="text/css">
   <![CDATA[
    .fil0 {fill:#003399}
   ]]>
  </style>
 </defs>
 <g id="Layer_x0020_1">
  <metadata id="CorelCorpID_0Corel-Layer"/>
  <g id="_1913751525792">
   <path class="fil0" d="M6965.51 8238.39l-2934.7 0c-109.55,0 -115.47,-29.64 -176.79,-70.72l0 -1467.35c96.67,25.81 997.12,613.39 1096.09,636.45 0,676.54 -41.75,618.77 830.91,618.77 348.37,0 265.19,-439.81 265.19,-618.77 71.46,-16.65 699.38,-407.63 814.22,-476.36 60.49,-36.2 223.76,-144.57 281.88,-160.09l0.12 1273.01c1.19,178.19 2.75,265.06 -176.91,265.06zm-3869.2 -8238.39l129.24 0c130.37,12.94 267.46,65.86 401.69,173.74 107.1,86.08 177.66,239.34 209.11,374.31 212.14,0 424.29,0 636.45,0 437.35,0 477.32,-49.55 477.32,265.18l742.51 0c401.44,0 636.45,279.41 636.45,671.81l0 2086.11c0,105.23 -34.04,194.46 -141.42,194.46 -140.54,0 -142.94,-104.39 -141.7,-247.24l0.26 -1944.95c0.09,-150.33 16.3,-243.89 -49.39,-339.55 -53.16,-77.41 -126.72,-137.79 -251.15,-137.79l-795.56 0 0 265.19 636.45 0c154.87,0 194.46,76.24 194.46,229.83l0 3341.31 265.19 17.68 0 -689.47c0,-184.28 282.86,-218.86 282.86,53.04l0 1166.8 654.13 0c257.66,0 441.97,184.32 441.97,441.97l0 2121.47c0,576.52 -530.49,460.19 -866.28,459.65 -259.45,-0.43 -232.94,-22.87 -251.37,84.52 -41.63,242.85 -278.59,463.53 -508.8,463.53l-5268.33 0c-264.81,0 -530.37,-267.92 -530.37,-618.77l0 -7000.85c0,-356.8 263.31,-618.77 618.77,-618.77l760.19 0c0,-154.27 -25.41,-263.08 175.65,-266.32l938.13 1.15c20.41,-245.33 278.18,-515.8 603.56,-548.05zm2118.99 7637.3l0 -495.01 548.04 0 0 548.05 -495 0c-40.75,0 -53.04,-12.3 -53.04,-53.04zm-1237.54 -1873.97l3058.45 0c37.84,0 85.24,46.49 97.66,79.15 18.73,49.26 8.43,468.28 8.43,539.62 -65.17,17.4 -949.58,567.23 -1113.78,654.11 -44.53,-84.14 -116.39,-176.78 -229.82,-176.78l-601.09 0c-100.65,0 -207.81,94.3 -229.83,176.78l-1113.77 -654.11c0,-123.74 0.7,-247.67 -0.13,-371.39 -0.92,-137.01 -13.29,-247.38 123.87,-247.38zm1803.25 -548.04l159.12 0c57.28,0 106.08,76.82 106.08,141.42l0 123.76 -265.19 0 0 -265.18zm-830.91 106.06c0,-42.57 63.51,-106.06 106.08,-106.06l441.97 0 0 265.18 -548.05 0 0 -159.12zm-4402.05 -3765.6l0 6788.71c0,85.5 50.21,159.1 141.44,159.1l1856.29 0c182.71,0 182.71,-265.18 0,-265.18l-1714.85 0 0 -6594.24 548.04 0c0,164.15 -13.44,343.54 161.74,457.02 164.4,106.51 311.31,91.02 527.74,91.02 326.33,0 243.47,-239.15 150.7,-274.43 -101.04,-38.44 -374.32,35.52 -539.63,-43.79 -40.48,-173.8 -17.67,-836.23 -17.67,-1060.74l954.66 0c189.8,0 98.5,-182.87 197.52,-350.52 170.18,-288.18 706.78,-280.37 757.61,208.62 9.09,87.49 45.25,141.9 140.96,141.9l954.66 0 0 990.02c0,145.3 -306.6,106.08 -459.65,106.08l-1131.46 0c-228.03,0 -424.29,-50.19 -424.29,159.1 0,89.29 130.94,123.76 229.83,123.76l1520.39 0c270.53,0 548.04,-99.19 548.04,-406.61l0 -141.42 548.05 0 0 3288.27c-467.82,0 -830.91,-67.91 -830.91,548.05l-1732.53 0c-236.99,0 -226.54,258.5 -51.96,281.78l706.07 1.08c-4.6,55.3 -17.68,62.8 -17.68,123.76l0 972.34 -671.79 0c-183.45,0 -215.06,282.86 35.36,282.86l636.43 0 0 265.18 -671.79 0c-183.45,0 -215.06,282.87 35.36,282.87l636.43 0 0 388.93c0,88.86 15.9,79.16 17.68,159.12 -272.53,0 -565.73,-55.84 -565.73,123.74 0,199.99 312.57,141.44 636.45,141.44l2386.66 0c-41.47,178.02 -135.32,282.87 -353.59,282.87l-5056.16 0c-192.89,0 -353.59,-110.45 -353.59,-300.55l0 -7089.25c0,-167.66 132.89,-300.55 300.55,-300.55l795.55 0 0 265.19 -636.43 0c-132.54,0 -194.47,61.93 -194.47,194.47z"/>
   <path class="fil0" d="M1927.01 1502.71c0,85.51 55.92,141.44 141.42,141.44l2209.88 0c131.86,0 212.32,-282.87 -70.72,-282.87l-2121.47 0c-78.83,0 -159.12,71.59 -159.12,141.44z"/>
   <path class="fil0" d="M2757.92 2846.31c0,118.7 38.67,176.78 194.46,176.78l2068.44 0c271.88,0 237.3,-282.86 53.04,-282.86l-2174.51 0c-64.62,0 -141.44,48.8 -141.44,106.08z"/>
   <path class="fil0" d="M2757.92 4242.95c0,92.32 60.72,141.42 106.08,141.42l2245.22 0c131.61,0 163.78,-265.18 -17.68,-265.18l-2209.87 0c-82.53,0 -123.76,41.22 -123.76,123.76z"/>
   <path class="fil0" d="M2757.92 4790.99c0,92.32 60.72,141.44 106.08,141.44l1697.17 0c122.35,0 170.88,-265.18 -17.68,-265.18l-1661.82 0c-82.53,0 -123.76,41.22 -123.76,123.74z"/>
   <path class="fil0" d="M1520.39 6965.49c0,178.11 132.53,199.34 212.15,318.23 -372.26,249.26 -167.74,467.74 -11.26,379.13 88.73,-50.23 126.88,-131.87 205.72,-184.67 74.58,49.94 118.14,128.96 194.43,177.69 83.55,53.35 212.18,50.23 212.18,-142.32 0,-54.88 -175.25,-192.42 -212.15,-247.51 326.16,-218.41 210.16,-406.61 88.4,-406.61 -113.94,0 -201.43,157.61 -282.86,212.15 -67.35,-45.11 -182.08,-212.15 -265.18,-212.15 -64.61,0 -141.44,48.78 -141.44,106.06z"/>
   <path class="fil0" d="M1520.39 4225.27c0,161.41 123.64,168.35 212.15,300.54 -88.52,132.19 -212.15,139.13 -212.15,300.54 0,82.72 90.62,106.08 159.1,106.08 69.08,0 203.21,-170.64 265.19,-212.15 189.11,282.42 388.93,269.09 388.93,53.05 0,-66.82 -155.32,-189.06 -194.47,-247.51 45.29,-67.62 279.09,-227.18 168.34,-362.81 -128.06,-156.81 -278.52,100.07 -380.48,168.35 -202.75,-302.79 -406.61,-225.22 -406.61,-106.08z"/>
   <path class="fil0" d="M1785.57 3235.25c-218.4,-326.16 -406.61,-210.16 -406.61,-88.4 0,102.3 178.32,239.62 243.07,304.99 131.38,132.65 176.94,170.95 327.37,17.94l415.19 -415.7c48.02,-47.45 110.46,-85.99 110.46,-172.42 0,-75.64 -54.5,-141.42 -123.76,-141.42 -139.85,0 -394.05,380.04 -565.73,495.01z"/>
   <path class="fil0" d="M1785.57 5975.48c-196.33,-293.2 -406.61,-238.37 -406.61,-88.4 0,96.87 115.52,177.4 172.37,234.25 233.34,233.32 226.78,259.76 433.13,53.04l344.75 -344.74c53.47,-53.45 145.85,-113.85 145.85,-207.74 0,-92.85 -83.93,-153.36 -166.28,-132.6 -70.14,17.68 -135.6,107.42 -182.88,154.7 -85.85,85.87 -254.61,274.1 -340.32,331.48z"/>
   <path class="fil0" d="M2757.92 3394.35c0,136.36 50.32,176.79 229.83,176.79l901.63 0c338.68,0 256.64,-282.86 88.38,-282.86l-1078.41 0c-64.62,0 -141.44,48.78 -141.44,106.06z"/>
   <path class="fil0" d="M2757.92 6169.96c0,181.43 192.27,141.42 406.61,141.42 159.09,0 249.95,-282.86 -88.4,-282.86 -125.14,0 -318.22,-21.71 -318.22,141.44z"/>
   <path class="fil0" d="M3023.09 671.81c0,99.25 61,141.42 141.44,141.42 182.72,0 182.72,-265.18 0,-265.18 -75.64,0 -141.44,54.49 -141.44,123.76z"/>
  </g>
 </g>
</svg>
